<svg xmlns="http://www.w3.org/2000/svg" version="1.1" xmlns:xlink="http://www.w3.org/1999/xlink" xmlns:svgjs="http://svgjs.dev/svgjs" width="1920" height="1080" preserveAspectRatio="none" viewBox="0 0 1920 1080"><g mask="url(&quot;#SvgjsMask1015&quot;)" fill="none"><rect width="1920" height="1080" x="0" y="0" fill="#0e2a47"></rect><path d="M1895.263,946.668C2011.274,951.76,2113.062,876.188,2171.946,776.102C2231.752,674.448,2245.857,550.085,2189.557,446.448C2130.754,338.204,2018.364,262.249,1895.263,266.786C1778.429,271.092,1687.572,361.775,1636.288,466.84C1591.235,559.14,1608.891,663.146,1657.674,753.531C1709.63,849.795,1785.978,941.872,1895.263,946.668" fill="rgba(28, 83, 142, 0.4)" class="triangle-float2"></path><path d="M-102.5875270665801 436.9902509326436L61.65259373499836 569.989278367781 179.03107448691526 257.12958344784465z" fill="rgba(28, 83, 142, 0.4)" class="triangle-float2"></path><path d="M1197.2733522224594 730.4884141872373L1047.0531399087438 599.9039758709864 916.468701592493 750.124188184702 1066.6889139062084 880.7086265009528z" fill="rgba(28, 83, 142, 0.4)" class="triangle-float2"></path><path d="M564.553,527.005C609.578,527.159,654.952,509.3,676.96,470.021C698.564,431.463,687.757,385.026,665.5,346.841C643.433,308.982,608.343,275.509,564.553,277.166C522.702,278.75,496.994,317.757,476.028,354.012C455.025,390.331,434.355,431.909,453.468,469.258C473.844,509.076,519.824,526.852,564.553,527.005" fill="rgba(28, 83, 142, 0.4)" class="triangle-float2"></path><path d="M1344.8113838023273 159.11874277473706L1042.0474046293966 370.68664068772614 1332.2490913627362 512.2274605643571z" fill="rgba(28, 83, 142, 0.4)" class="triangle-float3"></path><path d="M602.341,297.365C669.847,300.483,742.993,281.076,775.841,222.018C808.069,164.074,780.495,95.534,746.139,38.826C713.375,-15.255,665.572,-64.782,602.341,-64.361C539.655,-63.944,491.791,-14.34,461.823,40.72C433.366,93.003,425.962,154.964,454.549,207.176C484.255,261.432,540.551,294.511,602.341,297.365" fill="rgba(28, 83, 142, 0.4)" class="triangle-float3"></path><path d="M215.424,799.219C285.243,799.049,350.09,762.793,385.209,702.449C420.539,641.742,422.711,565.83,386.162,505.849C350.948,448.058,283.094,422.976,215.424,423.81C149.371,424.624,86.336,453.643,51.826,509.97C15.719,568.905,10.178,643.118,44.204,703.278C78.725,764.312,145.304,799.389,215.424,799.219" fill="rgba(28, 83, 142, 0.4)" class="triangle-float2"></path><path d="M-37.98758741930817 337.5000962910042L160.29718889553288 565.600638596482 388.3977312010107 367.31586228164093 190.11295488616963 139.21531997616313z" fill="rgba(28, 83, 142, 0.4)" class="triangle-float2"></path><path d="M1872.074,778.21C1936.325,778.422,2002.457,757.851,2035.245,702.596C2068.605,646.378,2056.266,577.492,2025.363,519.887C1992.333,458.316,1941.942,397.837,1872.074,398.435C1802.865,399.027,1755.781,461.375,1723.263,522.472C1693.135,579.079,1678.506,646.1,1710.757,701.525C1742.851,756.68,1808.261,777.999,1872.074,778.21" fill="rgba(28, 83, 142, 0.4)" class="triangle-float1"></path></g><defs><mask id="SvgjsMask1015"><rect width="1920" height="1080" fill="#ffffff"></rect></mask><style>
                @keyframes float1 {
                    0%{transform: translate(0, 0)}
                    50%{transform: translate(-10px, 0)}
                    100%{transform: translate(0, 0)}
                }

                .triangle-float1 {
                    animation: float1 5s infinite;
                }

                @keyframes float2 {
                    0%{transform: translate(0, 0)}
                    50%{transform: translate(-5px, -5px)}
                    100%{transform: translate(0, 0)}
                }

                .triangle-float2 {
                    animation: float2 4s infinite;
                }

                @keyframes float3 {
                    0%{transform: translate(0, 0)}
                    50%{transform: translate(0, -10px)}
                    100%{transform: translate(0, 0)}
                }

                .triangle-float3 {
                    animation: float3 6s infinite;
                }
            </style></defs></svg>